<?xml version="1.0" encoding="utf-8"?>
<!-- Generator: Adobe Illustrator 16.0.3, SVG Export Plug-In . SVG Version: 6.00 Build 0)  -->
<!DOCTYPE svg PUBLIC "-//W3C//DTD SVG 1.1//EN" "http://www.w3.org/Graphics/SVG/1.1/DTD/svg11.dtd">
<svg version="1.1" id="Layer_1" xmlns="http://www.w3.org/2000/svg" xmlns:xlink="http://www.w3.org/1999/xlink" x="0px" y="0px"
	 width="100px" height="100px" viewBox="0 0 100 100" enable-background="new 0 0 100 100" xml:space="preserve">
<g id="Your_Icon">
	<path d="M37.758,26.485C20.22,26.485,6,40.704,6,58.242S20.22,90,37.758,90c17.538,0,31.758-14.22,31.758-31.758
		S55.296,26.485,37.758,26.485z M37.758,82.369c-13.324,0-24.125-10.803-24.125-24.127c0-13.323,10.801-24.125,24.125-24.125
		c13.324,0,24.127,10.802,24.127,24.125C61.885,71.566,51.082,82.369,37.758,82.369z"/>
	<path d="M37.758,37.992c-11.184,0-20.249,9.066-20.249,20.25c0,11.184,9.065,20.251,20.249,20.251
		c11.183,0,20.252-9.068,20.252-20.251C58.01,47.059,48.94,37.992,37.758,37.992z M37.758,77.027
		c-10.374,0-18.784-8.411-18.784-18.785c0-10.375,8.41-18.784,18.784-18.784s18.785,8.409,18.785,18.784
		C56.543,68.616,48.132,77.027,37.758,77.027z"/>
	<rect x="37.758" y="89.247" width="54.396" height="0.752"/>
</g>
</svg>
