<?xml version="1.0" encoding="utf-8"?>
<!-- Generator: Adobe Illustrator 16.0.3, SVG Export Plug-In . SVG Version: 6.00 Build 0)  -->
<!DOCTYPE svg PUBLIC "-//W3C//DTD SVG 1.1//EN" "http://www.w3.org/Graphics/SVG/1.1/DTD/svg11.dtd">
<svg version="1.1" id="Layer_1" xmlns="http://www.w3.org/2000/svg" xmlns:xlink="http://www.w3.org/1999/xlink" x="0px" y="0px"
	 width="100px" height="100px" viewBox="0 0 100 100" enable-background="new 0 0 100 100" xml:space="preserve">
<g id="Your_Icon">
	<path d="M91.797,58.625c-0.197,0-0.393,0.018-0.588,0.03l-3.741-8.097c-0.001-0.002-0.001-0.002-0.003-0.004L77.74,29.514
		c1.455-1.48,2.355-3.51,2.355-5.75c0-4.529-3.673-8.202-8.201-8.202c-2.955,0-5.537,1.567-6.981,3.911l-31.989-6.15
		c-0.663-3.865-4.021-6.809-8.074-6.809c-4.531,0-8.203,3.674-8.203,8.203c0,2.736,1.346,5.154,3.406,6.645L7.412,68.074
		C3.253,68.473,0,71.975,0,76.236c0,4.531,3.672,8.203,8.203,8.203c2.955,0,5.537-1.568,6.98-3.912l31.988,6.152
		c0.664,3.862,4.021,6.807,8.075,6.807c4.529,0,8.202-3.672,8.202-8.202c0-0.296-0.017-0.587-0.048-0.874l22.858-11.543
		c1.46,1.34,3.399,2.164,5.536,2.164c4.531,0,8.203-3.674,8.203-8.203S96.328,58.625,91.797,58.625z M31.83,19.008l31.988,6.151
		c0.369,2.155,1.576,4.018,3.277,5.249l-3.921,14.488l-23.124-4.188l-9.356-20.243C31.127,20.026,31.505,19.535,31.83,19.008z
		 M85.951,61.079c-0.432,0.438-0.811,0.931-1.135,1.458l-12.83-2.467l11.375-4.594L85.951,61.079z M68.895,45.932l3.713-13.723
		L79.87,47.92L68.895,45.932z M34.149,41.74l-15.274,6.139l6.688-24.717L34.149,41.74z M16.666,56.043l18.609,3.28L13.74,70.197
		c-0.236-0.215-0.482-0.417-0.74-0.604L16.666,56.043z M39.216,63.82c1.46,1.339,3.399,2.162,5.537,2.162
		c2.897,0,5.438-1.506,6.897-3.772l6.529,1.151l-3.724,13.76c-2.623,0.252-4.877,1.74-6.191,3.873l-31.184-5.998L39.216,63.82z
		 M60.045,78.641l3.85-14.229l19.023,3.657L60.784,79.244C60.549,79.029,60.303,78.828,60.045,78.641z"/>
</g>
</svg>
