<svg xmlns="http://www.w3.org/2000/svg" xmlns:xlink="http://www.w3.org/1999/xlink" version="1.1" id="Layer_1" x="0px" y="0px" width="100px" height="100px" viewBox="0 0 100 100" enable-background="new 0 0 100 100" xml:space="preserve">
<path fill="#000000" d="M96.258,25.577h-6.256v-7.969h6.256c0.735,0,1.334-0.598,1.334-1.335c0-0.736-0.598-1.334-1.334-1.334  h-6.256v-4.211c0-1.85-1.501-3.352-3.35-3.352h-0.693V5.242c0-1.852-1.332-3.351-2.977-3.351H58.391  c-1.643,0-2.975,1.499-2.975,3.351v42.524c0,1.848,1.332,3.351,2.975,3.351h6.058v2.032c0,1.737,1.935,3.165,4.41,3.334  c-4.641,22.109-15.803,37.742-28.817,37.742c-16.706,0-30.375-25.752-31.087-57.92c1.138-0.293,1.951-1.038,1.951-1.917V19.777  c0-0.838-0.739-1.557-1.793-1.876v-3.293c0-0.567-0.675-1.027-1.506-1.027H7.022c-0.83,0-1.504,0.459-1.504,1.027v3.293  c-1.056,0.319-1.795,1.039-1.795,1.876v14.61c0,1.002,1.057,1.837,2.45,2.013c0.767,33.663,15.662,60.61,33.869,60.61  c14.39,0,26.698-16.849,31.611-40.527c2.528-0.138,4.519-1.572,4.519-3.334v-2.033h6.813c1.644,0,2.977-1.5,2.977-3.349V37.92h0.691  c1.849,0,3.351-1.5,3.351-3.351v-6.323h6.256c0.735,0,1.334-0.598,1.334-1.334C97.593,26.174,96.993,25.577,96.258,25.577z"/>
</svg>