<svg xmlns="http://www.w3.org/2000/svg" xmlns:xlink="http://www.w3.org/1999/xlink" version="1.1" x="0px" y="0px" width="100px" height="100px" viewBox="0 0 100 100" enable-background="new 0 0 100 100" xml:space="preserve">
<g id="Captions">
</g>
<g id="Your_Icon">
	<g>
		<g>
			<path d="M81.875,67.619c-1.451,0-2.629-1.177-2.629-2.629V49.505c0-16.126-13.12-29.245-29.246-29.245     S20.754,33.379,20.754,49.505V64.99c0,1.452-1.177,2.629-2.629,2.629c-1.451,0-2.629-1.177-2.629-2.629V49.505     C15.496,30.479,30.974,15,50,15s34.504,15.479,34.504,34.505V64.99C84.504,66.442,83.327,67.619,81.875,67.619z"/>
		</g>
		<g>
			<path d="M30.244,77.645h-4.551c-2.01,0-2.732-0.72-2.732-2.73V51.709c0-2.01,0.723-2.728,2.732-2.728h4.551     c5.747,0,5.747,10.08,5.747,14.331C35.991,67.564,35.991,77.645,30.244,77.645z"/>
		</g>
		<g>
			<path d="M69.756,77.645h4.553c2.008,0,2.73-0.72,2.73-2.73V51.709c0-2.01-0.723-2.728-2.73-2.728h-4.553     c-5.743,0-5.743,10.08-5.743,14.331C64.013,67.564,64.013,77.645,69.756,77.645z"/>
		</g>
	</g>
</g>
</svg>