<svg xmlns="http://www.w3.org/2000/svg" xmlns:xlink="http://www.w3.org/1999/xlink" version="1.1" x="0px" y="0px" width="100px" height="100px" viewBox="0 0 100 100" enable-background="new 0 0 100 100" xml:space="preserve">
<g id="Captions">
</g>
<g id="Your_Icon">
	<g>
		<path d="M47.253,39.5c0,0-3.253,0-3.253,4.336c0,2.062,0.007,12.439,0.013,22.767C44.007,76.932,44,70.236,44,72.297    c0,4.336,3.253,4.336,3.253,4.336h1.083v19.516h5.422V76.633h1.084c0,0,3.252,0,3.252-4.336c0,0,0-0.037,0-0.109    c0-2.309,0-24.143,0-28.351c0-4.336-3.252-4.336-3.252-4.336V19.985c0,0-3.795-1.626-7.589,0V39.5L47.253,39.5z"/>
		<path d="M49.42,3.723l-2.167,3.253c0,0-0.884,1.044,0,2.166c0,0,1.972,1.411,0.985,2.333c-0.985,0.922-0.985,0.922-0.985,2.004    c0,0,3.794-1.625,7.589,0c0-1.083,0-1.083-0.985-2.004c-0.988-0.922,0.985-2.333,0.985-2.333c0.883-1.122,0-2.166,0-2.166    l-2.168-3.253C51.047,2.096,49.42,3.723,49.42,3.723z"/>
		<path d="M54.842,18.9v-4.335c0,0-3.795-1.628-7.589,0V18.9C47.253,18.9,51.047,17.275,54.842,18.9z"/>
		<polygon fill="#000000" points="47.253,14.565 47.253,13.479 47.253,14.565   "/>
		<polygon fill="#000000" points="47.253,19.985 47.253,18.9 47.253,19.985   "/>
	</g>
</g>
</svg>