<svg xmlns="http://www.w3.org/2000/svg" xmlns:xlink="http://www.w3.org/1999/xlink" version="1.1" id="Layer_1" x="0px" y="0px" width="100px" height="100px" viewBox="0 0 100 100" enable-background="new 0 0 100 100" xml:space="preserve">
<path d="M46.067,86.64c-0.368,6.451-3.81,8.729-6.684,8.729c-0.03,0-0.06,0-0.089-0.001c-3.417-0.056-6.948-3.021-7.084-8.578  c-0.214-8.775-0.143-14.011-0.072-16.515h3.02c0,0-0.325-3.898,0-9.097c0.325-5.199,11.046-10.722,15.919-13.971  c4.873-3.248,5.848-7.472,5.848-7.472V21.996h-9.401V1.755C47.523,0.786,46.11,0,44.365,0h-0.263c-1.744,0-3.158,0.785-3.158,1.754  v20.241H29.959H18.974V1.755C18.974,0.786,17.56,0,15.816,0h-0.263c-1.744,0-3.158,0.785-3.158,1.754v20.241H2.993v17.739  c0,0,0.975,4.224,5.848,7.472c4.874,3.25,15.595,8.772,15.92,13.971c0.325,5.198,0,9.097,0,9.097h2.87  c-0.072,2.622-0.136,7.861,0.077,16.624c0.203,8.307,6.083,12.883,11.513,12.972c0.056,0.001,0.111,0.001,0.167,0.001  c5.221,0,10.662-3.99,11.175-12.976c0.792-13.89,3.559-23.141,14.485-23.141v-4.504C47.63,59.251,46.575,77.75,46.067,86.64z"/>
</svg>