<svg xmlns="http://www.w3.org/2000/svg" xmlns:xlink="http://www.w3.org/1999/xlink" version="1.1" x="0px" y="0px" width="100px" height="100px" viewBox="0 0 100 100" enable-background="new 0 0 100 100" xml:space="preserve">
<g id="Captions">
</g>
<g id="Your_Icon">
	<g>
		<path fill="#000000" d="M62.185,23.744c1.835-1.465,2.537-3.184,2.537-5.069c0-1.408-1.557-3.353-2.537-5.071    c-1.264-2.322,0.292-5.491,0-7.604c-2.919,2.429-5.074,4.965-5.074,7.604c0,1.408,0.987,3.407,2.538,5.071    C61.421,20.727,61.906,23.039,62.185,23.744z"/>
		<path fill="#000000" d="M62.321,84.139c6.627-3.802,11.682-10.444,12.541-19.83c0.904-9.937,9.85-15.34,10.138-15.213    c-9.524-4.393-15.214,2.852-15.214,2.535c0-1.247,5.349-17.807-5.064-22.814c-11.995-5.77-15.312-10.373-15.211-17.747    c-0.009,0.298-7.256,11.978-2.536,17.747c7.326,8.932,4.234,15.847,0,15.211c-7.11-1.066-6.252-10.338-5.072-12.676    c-3.716-0.392-8.015,1.919-10.141,5.069c-6.396,9.502,7.468,18.594,2.538,25.352c-3.752,5.148-10.162-4.99-10.141-5.069    c-2.656,13.861,2.349,23.003,10.115,27.633c-11.516,0.793-19.429,2.432-19.429,4.324c0,2.669,15.705,4.833,35.077,4.833    C69.296,93.493,85,91.329,85,88.66C85,86.593,75.573,84.829,62.321,84.139z M41.902,66.845c2.264-4.082,7.996-4.89,5.072-10.142    c0.038,0.079,6.218,1.008,10.136,5.069c6.012,6.205,5.329,17.357-5.063,17.751C38.755,80.011,40.121,70.053,41.902,66.845z"/>
	</g>
</g>
</svg>