<svg xmlns="http://www.w3.org/2000/svg" xmlns:xlink="http://www.w3.org/1999/xlink" version="1.1" x="0px" y="0px" width="100px" height="100px" viewBox="0 0 100 100" enable-background="new 0 0 100 100" xml:space="preserve">
<g id="Captions">
</g>
<g id="Your_Icon">
	<path d="M17,0v100h66V0H17z M63.53,49.047c0,1.069-0.866,1.936-1.935,1.936s-7.258-0.866-7.258-1.936   c0-1.068,6.189-1.935,7.258-1.935S63.53,47.979,63.53,49.047z M59.29,56.404c0.724,0.786,0.672,2.011-0.114,2.733   c-0.788,0.724-2.013,0.672-2.735-0.114c-0.723-0.787-4.273-5.93-3.487-6.653C53.74,51.646,58.567,55.617,59.29,56.404z    M56.93,39.358c0.768-0.745,1.993-0.727,2.737,0.04c0.744,0.768,0.727,1.992-0.041,2.736c-0.766,0.744-5.811,4.434-6.556,3.667   C52.326,45.035,56.164,40.103,56.93,39.358z M38.711,13h6.764c0.319-2,1.955-3.317,3.929-3.317S53.012,11,53.333,13h6.3   c1.577,0,2.854,1.426,2.854,3s-1.276,3-2.854,3H38.711c-1.575,0-2.852-1.426-2.852-3S37.136,13,38.711,13z M49.793,51.331   c-1.261,0-2.283-1.022-2.283-2.283c0-1.262,1.022-2.284,2.283-2.284s2.283,1.022,2.283,2.284   C52.076,50.309,51.054,51.331,49.793,51.331z M51.857,60.85c0,1.068-0.866,1.936-1.935,1.936s-1.936-0.867-1.936-1.936   s0.867-7.258,1.936-7.258S51.857,59.781,51.857,60.85z M47.987,37.29c0-1.068,0.867-1.935,1.936-1.935s1.935,0.866,1.935,1.935   c0,1.069-0.866,7.258-1.935,7.258S47.987,38.359,47.987,37.29z M45.249,48.985c0,1.07-6.189,1.937-7.259,1.937   c-1.068,0-1.935-0.866-1.935-1.937c0-1.068,0.866-1.935,1.935-1.935C39.06,47.051,45.249,47.917,45.249,48.985z M40.112,39.297   c0.764-0.746,1.99-0.731,2.736,0.033c0.747,0.766,4.45,5.798,3.687,6.545c-0.765,0.746-5.709-3.076-6.456-3.841   C39.333,41.27,39.348,40.044,40.112,39.297z M40.116,55.963c0.767-0.744,5.811-4.434,6.556-3.667   c0.744,0.768-3.094,5.699-3.859,6.444c-0.767,0.744-1.991,0.726-2.735-0.041C39.331,57.934,39.35,56.707,40.116,55.963z M66.293,88   H34.144c-0.971,0-1.759-0.896-1.759-2s0.788-2,1.759-2h32.149c0.971,0,1.759,0.896,1.759,2S67.264,88,66.293,88z M67.938,77H32.408   c-1.168,0-2.114-0.896-2.114-2s0.946-2,2.114-2h35.529c1.168,0,2.114,0.896,2.114,2S69.105,77,67.938,77z"/>
</g>
<g id="Layer_4" display="none">
</g>
<g id="working_layer" display="none">
</g>
</svg>