<svg xmlns="http://www.w3.org/2000/svg" xmlns:xlink="http://www.w3.org/1999/xlink" version="1.1" x="0px" y="0px" width="100px" height="100px" viewBox="0 0 100 100" enable-background="new 0 0 100 100" xml:space="preserve">
<g id="Captions" display="none">
</g>
<g id="Your_Icon">
	<path d="M72,0H16c-3.313,0-6,2.687-6,6v88c0,3.313,2.687,6,6,6h68c3.313,0,6-2.687,6-6V18L72,0z M62,4h6v13h-6V4z M52,4h6v13h-6V4z    M42,4h6v13h-6V4z M32,4h6v13h-6V4z M22,4h6v13h-6V4z M22,96V63c0-1.657,1.343-3,3-3h50c1.657,0,3,1.343,3,3v33H22z M78,22h-6   V5.657l6,6V22z"/>
</g>
</svg>